<svg version="1.2" xmlns="http://www.w3.org/2000/svg" viewBox="0 0 412 252" width="412" height="252"><style>.a{fill:#fff}</style><path fill-rule="evenodd" class="a" d="m49.3 223.8c-1.2 0-2.2-0.6-2.8-1.6-0.4-0.7-10.6-18.4-22.4-61.5-11.9-43.1-12.2-63.6-12.2-64.4 0-1.5 0.9-2.7 2.3-3.1l79.7-21.8c1.7-0.5 3.4 0.5 3.8 2.2q0.2 0.5 0.2 0.9c-0.5 12.3-0.2 33.4 3.2 64.7 3.6 31.4 8 52.2 11.2 64.1q0.1 0.4 0.1 0.8v0.1c0 1.4-1 2.6-2.4 3l-59.9 16.5q-0.4 0.1-0.9 0.1zm-30.9-125.2c0.6 8.9 3.5 29.9 11.9 60.4 9.3 34.1 17.7 52.1 20.6 57.9l54.6-15c-3.2-12.5-7.3-32.7-10.6-62-3.1-28.3-3.6-48.5-3.4-61.3z"/><path fill-rule="evenodd" class="a" d="m15.1 99.4c-1.5 0-2.7-0.9-3.1-2.3l-5.3-19.4c-0.5-1.7 0.5-3.4 2.2-3.9 0.6-0.1 1.2-0.1 1.8 0.1l10.3 3.3 5.4-7.4c0.7-1.1 2-1.6 3.3-1.2l12.8 3.2 9.2-9.3c0.8-0.8 2-1.1 3.1-0.8l12.9 3.3 10.3-9.2c0.8-0.7 1.8-0.9 2.8-0.7l11.3 2.5 0.1-0.2c0.3-1.7 2-2.8 3.7-2.4 1.3 0.3 2.3 1.4 2.5 2.7l0.3 2.7q0.1 0.4 0 0.8c0 0-0.6 4.4-0.9 13.3 0 1.4-0.9 2.6-2.3 3l-79.6 21.8q-0.4 0.1-0.8 0.1zm-0.8-17.7l3 10.7 74.3-20.4c0.1-3.4 0.3-6 0.4-7.9l-11-2.5-10.4 9.3c-0.8 0.7-1.9 0.9-2.9 0.7l-12.8-3.3-9.2 9.3c-0.8 0.7-2 1.1-3.1 0.8l-12.4-3.1-5.4 7.5c-0.8 1.1-2.2 1.5-3.5 1.1z"/><path fill-rule="evenodd" class="a" d="m54.6 243.1c-1.5 0-2.7-0.9-3.1-2.3l-5.3-19.4c-0.5-1.6 0.5-3.4 2.2-3.8l59.9-16.5c1.7-0.5 3.5 0.5 3.9 2.2q0 0 0 0.1 1.6 6.3 3.8 12.4 0.1 0.4 0.2 0.8l0.4 3.5c0.2 1.7-1.1 3.3-2.8 3.5q-0.6 0-1.2-0.1l-6.3-1.7-9 9.2c-0.9 1-2.3 1.2-3.5 0.8l-10.3-4.3-7.8 9.4c-1 1.1-2.6 1.5-4 0.7l-7.6-4.3-7.1 8.7c-0.6 0.7-1.5 1.1-2.4 1.1zm-1.5-20.3l2.9 10.5 4.9-6c1-1.2 2.7-1.5 4-0.8l7.6 4.3 7.7-9.1c0.9-1.1 2.3-1.4 3.6-0.9l10.4 4.3 8.9-9c0.7-0.8 1.9-1.1 3-0.8l3.3 0.8c-0.6-1.6-1.4-4.3-2.4-8z"/><path fill-rule="evenodd" class="a" d="m357.5 225.4q-0.5 0-1-0.1l-42.6-13.8c-1.3-0.4-2.2-1.7-2.2-3v-0.1q0-0.4 0.1-0.7c3.2-13 7.7-35.8 11.1-70.4 2-19.9 3-39.8 2.9-59.7-0.1-1.8 1.3-3.2 3.1-3.2q0.5 0 1 0.1l68.2 22c1.4 0.5 2.3 1.8 2.2 3.2 0 0.8-1.2 20.7-14.9 63.5-11.5 35.5-21.7 55.2-25 60.4-0.6 1.1-1.7 1.8-2.9 1.8zm-38.9-19l37.4 12.1c3.2-5.6 12.3-23 23.3-57.3 9.8-30.2 13.6-50.7 14.5-59.4l-61.7-19.9c0.1 16.4-0.9 35.3-2.9 56-3.2 32.6-7.4 54.9-10.6 68.5z"/><path fill-rule="evenodd" class="a" d="m397.2 102.7q-0.5 0-1-0.1l-68.2-22.1c-1.4-0.4-2.2-1.6-2.2-3 0-6.8-0.3-12.1-0.5-15.5-0.1-1.6 1-3 2.5-3.3l10.5-2.2c1.1-0.2 2.2 0.1 3 1l8.9 9.7 12.5-2.8c1.3-0.3 2.6 0.3 3.3 1.3l6.3 9.2 11.6-3.5c1.5-0.5 3 0.2 3.7 1.5l4.1 7.8 10.7-3.3c1.7-0.5 3.4 0.4 3.9 2.1 0.2 0.6 0.2 1.3 0 1.9l-6.1 19.1c-0.4 1.3-1.7 2.2-3 2.2zm-65.1-27.5l63 20.4 3.3-10.4-7.4 2.3c-1.5 0.4-3-0.2-3.7-1.6l-4.1-7.7-11.3 3.4c-1.3 0.4-2.8-0.1-3.6-1.2l-6.3-9.3-12.2 2.7c-1.2 0.2-2.3-0.2-3.1-1l-8.9-9.7-6 1.2c0.1 2.9 0.2 6.6 0.3 10.9z"/><path fill-rule="evenodd" class="a" d="m351.3 244.5c-1 0-1.9-0.4-2.5-1.2l-6.8-8.4-8.5 3.2c-1.2 0.5-2.6 0.2-3.5-0.8l-8.9-9.7-10.1 2.1c-1.7 0.4-3.4-0.7-3.8-2.4q-0.1-0.5 0-1l0.3-3.1q0-0.5 0.2-1 2.5-7.1 4.1-14.5c0.4-1.7 2.1-2.7 3.8-2.3q0.1 0 0.3 0.1l42.6 13.8c1.6 0.5 2.5 2.3 2 3.9l-6.2 19.1c-0.4 1.3-1.7 2.2-3 2.2zm-8.3-16.5c1 0 1.9 0.4 2.5 1.1l4.6 5.7 3.4-10.5-36.4-11.8c-1.2 4.7-2.2 8.1-2.9 10.1l7.4-1.5c1-0.3 2.2 0.1 2.9 0.9l8.7 9.5 8.7-3.3q0.6-0.2 1.1-0.2z"/><path class="a" d="m310.6 226.6q-0.1 0-0.3 0l-7.1-0.7c-0.8-0.1-1.4-0.4-2-1-1.3-1.3-1.3-3.3 0-4.5 0.7-0.7 1.6-1 2.5-0.9l7.3 0.7c1.6 0.1 2.8 1.5 2.8 3.1v0.1c0 1.7-1.4 3.2-3.2 3.2z"/><path class="a" d="m357.5 225.4q-0.5 0-1-0.1l-42.6-13.8c-1.7-0.6-2.5-2.4-2-4 0.6-1.7 2.3-2.5 4-2l42.6 13.7c1.3 0.4 2.1 1.6 2.1 3v0.1c0 1.7-1.4 3.1-3.1 3.1z"/><path fill-rule="evenodd" class="a" d="m113 220.1c-1.3 0-2.4-0.8-2.9-2q-2.3-6.5-4-13.1 0-0.2-0.1-0.3c-3.1-12.2-7.6-33.2-11.2-64.8-3.5-31.7-3.7-53.1-3.3-65.6q0.1-7 0.9-14c0.2-1.4 1.4-2.5 2.8-2.7l26.7-3 49-5.5c1.7-0.2 3.3 1.1 3.5 2.8q0.1 0.5-0.1 1.1c-3.1 13.1-7.5 35.7-10.7 69.1-2 20.6-3 39.1-3 55v0.1c0 5.2 0 9.7 0.2 13.5 0.2 6.5 0.6 12.2 1.2 16.9q0.1 0.5 0.2 1 0 0.1-0.1 0.3l-0.3 3.2c-0.1 1.5-1.3 2.7-2.8 2.9l-18.6 2.1q-0.1 0-0.2 0l-13.5 1.5-13.3 1.5q-0.2 0-0.4 0zm-0.7-16.5c1.2 4.7 2.2 7.9 2.9 9.9l10.8-1.2 13.6-1.5q0.2 0 0.3 0l15.9-1.8v-0.3q0 0 0-0.1c-0.7-4.9-1.1-10.9-1.4-17.7-0.1-3.8-0.1-8.4-0.1-13.7v-0.1c0-16.1 1-34.8 3-55.6 2.9-30.3 6.8-51.9 9.9-65.6l-44.6 5-24.1 2.7c-0.2 2.2-0.5 5.8-0.6 10.9-0.5 12.3-0.3 33.4 3.2 64.7 3.6 31.4 8 52.2 11.2 64.1q0 0.1 0 0.3z"/><path fill-rule="evenodd" class="a" d="m95.6 63.9c-1.6 0-3-1.2-3.2-2.8l-0.3-2.6-2.4-21.8c-0.2-1.7 1.1-3.3 2.8-3.5q0.9-0.1 1.8 0.4l12.2 6.1 8.2-8.3c1-0.9 2.3-1.1 3.5-0.6l15.1 6.5 13.3-9.7c1-0.7 2.3-0.8 3.4-0.2l12 6.5 12.9-11.4c1.3-1.2 3.3-1.1 4.4 0.2 0.6 0.7 0.9 1.6 0.8 2.5l-1.2 11.5q0 0.4-0.2 0.8c0 0-1.8 5-4.4 15.5-0.3 1.3-1.4 2.3-2.7 2.4l-49 5.5-26.7 3q-0.1 0-0.3 0zm1-22.1l1.8 15.5 23.5-2.7 46.8-5.2c2.1-8 3.5-12.4 4-13.7l0.3-3.1-8.4 7.5c-1 0.8-2.5 1-3.6 0.4l-12.2-6.6-13.2 9.6c-0.9 0.6-2.1 0.8-3.1 0.3l-14.8-6.4-8.3 8.4c-1 0.9-2.5 1.2-3.7 0.5z"/><path fill-rule="evenodd" class="a" d="m115.8 244.4c-1.7 0-3-1.2-3.2-2.8l-2.3-20.8-0.4-3.5c-0.2-1.7 1.1-3.3 2.8-3.5l13.3-1.5 13.6-1.5q0.2 0 0.3 0l18.4-2.1c1.8-0.2 3.3 1 3.5 2.8q0 0.3 0 0.6l-1.7 17.9c-0.2 1.8-1.7 3.1-3.4 2.9q-0.4 0-0.7-0.2l-7.7-2.5-6.3 10.1c-0.9 1.5-2.9 2-4.4 1.1q-0.1-0.1-0.2-0.2l-8.9-7-10.6 9.4c-0.6 0.5-1.4 0.8-2.1 0.8zm0.7-24.7l0.1 0.4 1.6 14.8 8.1-7.2c1.1-1 2.8-1 4-0.1l8.2 6.4 5.7-9.3c0.8-1.2 2.3-1.8 3.7-1.3l6.3 2.1 0.9-10.1-14.7 1.7q-0.1 0-0.2 0l-13.5 1.5z"/><path class="a" d="m252.4 220.9q-0.1 0-0.3 0l-77.9-7.6c-1.7-0.2-3-1.8-2.8-3.5 0.2-1.7 1.7-3 3.4-2.8l77.8 7.5c0.8 0.1 1.5 0.4 2 0.9v0.1c1.3 1.2 1.3 3.2 0 4.4-0.5 0.6-1.3 1-2.2 1z"/><path fill-rule="evenodd" class="a" d="m310.6 226.5q-0.1 0-0.3 0l-58.2-5.6q-0.3-0.1-0.6-0.2l-77.2-7.4h-0.1q-0.2 0-0.3 0l-4.4-0.5-5.8-0.6q-0.1 0-0.2 0l-3.1-0.3q-0.1 0-0.2 0l-1.5-0.2c-1.5-0.1-2.7-1.3-2.9-2.8q0-0.1 0-0.3c-0.7-4.9-1.1-10.9-1.4-17.7-0.1-3.8-0.2-8.4-0.2-13.7v-0.1c0-16.1 1.1-34.8 3.1-55.6 3.3-33.8 7.7-56.7 10.9-70q1.9-8.2 4.6-16.2c0.5-1.3 1.8-2.2 3.3-2.1l56.9 5.6 61.8 6 3 0.3 29.9 2.9c1.4 0.1 2.6 1.2 2.8 2.6 0 0.2 0.6 3.7 1.1 11 0.2 3.5 0.5 9 0.5 15.9 0.1 20.2-0.9 40.3-2.9 60.4-3.4 34.8-8 57.8-11.2 71q0 0.2-0.1 0.3-1.7 7.8-4.3 15.3c-0.5 1.2-1.7 2-3 2zm-57.4-11.9l55.3 5.3c0.7-2.1 1.8-6.1 3.3-11.9q0-0.2 0-0.4c3.2-13 7.7-35.7 11.1-70.3 2-19.9 3-39.8 2.9-59.7q0-0.1 0-0.1c0-6.8-0.3-12.1-0.5-15.5-0.2-3.6-0.5-6.3-0.7-8l-27.4-2.6-3-0.3-61.8-6-54.4-5.3c-0.8 2.4-2.1 6.8-3.6 13.2-3.2 13.1-7.5 35.7-10.8 69.1-2 20.6-3 39.1-3 55v0.1c0 5.2 0 9.8 0.2 13.5 0.2 5.7 0.5 10.7 1 15l2.2 0.2q0.1 0 0.2 0l5.9 0.6 4.4 0.4q0.1 0 0.3 0.1l77.8 7.5q0.3 0 0.6 0.1z"/><path class="a" d="m252.4 220.9q-0.1 0-0.3 0l-77.9-7.6c-1.7-0.2-3-1.8-2.8-3.5 0.2-1.7 1.7-3 3.4-2.8l77.8 7.5c0.8 0.1 1.5 0.4 2 0.9v0.1c1.3 1.2 1.3 3.2 0 4.4-0.5 0.6-1.3 1-2.2 1z"/><path class="a" d="m310.6 226.6q-0.1 0-0.3 0l-7.1-0.7-51.1-5c-1.7-0.2-3-1.8-2.8-3.5 0.2-1.8 1.7-3 3.4-2.8l58.3 5.6c1.6 0.1 2.8 1.5 2.8 3.1v0.1c0 1.7-1.4 3.2-3.2 3.2z"/><path fill-rule="evenodd" class="a" d="m327.4 54.3q-0.1 0-0.3 0l-29.9-2.9-3-0.3-61.8-6-56.9-5.6c-1.8-0.1-3-1.7-2.9-3.4q0 0 0 0l0.8-7.4 1.9-19.5c0.2-1.7 1.7-3 3.4-2.8q1 0.1 1.7 0.7l12 9.5 10.9-7.1c1.1-0.7 2.5-0.7 3.5 0l15 10.6 16.7-7.5c1-0.5 2.2-0.3 3.1 0.3l14.9 10.6 16.2-7.5c1.2-0.6 2.6-0.4 3.5 0.5l11.4 10.8 15-8.3c1.3-0.7 3-0.4 3.9 0.8l8.1 9.6 13.9-7.8c1.5-0.9 3.5-0.3 4.3 1.2 0.3 0.6 0.5 1.2 0.4 1.9l-2.7 26.7c-0.1 1.7-1.5 2.9-3.1 2.9zm-148.2-20.8l53.8 5.3 61.8 5.9 3 0.4 26.8 2.6 1.7-17.6-10.8 6.1c-1.3 0.8-3 0.5-4-0.7l-8.1-9.6-14.8 8.1c-1.2 0.7-2.7 0.5-3.7-0.5l-11.5-10.9-15.9 7.4c-1.1 0.5-2.3 0.4-3.2-0.3l-14.9-10.6-16.7 7.5c-1 0.5-2.2 0.4-3.1-0.3l-14.7-10.3-11 7.2c-1.2 0.7-2.7 0.6-3.7-0.2l-9.2-7.3-1.3 13.6z"/><path fill-rule="evenodd" class="a" d="m308 253.3c-0.7 0-1.4-0.2-2-0.7l-11.9-9.5-11 7.1c-1.1 0.7-2.5 0.7-3.5 0l-14.9-10.6-16.7 7.5c-1 0.5-2.2 0.4-3.1-0.3l-14.9-10.6-16.3 7.5c-1.2 0.6-2.6 0.4-3.5-0.5l-11.4-10.8-2.3 1.2-12.6 7.1c-1.3 0.7-3 0.4-4-0.8l-8.1-9.6-8.8 5-5 2.8c-1.6 0.9-3.5 0.3-4.3-1.2-0.4-0.5-0.5-1.2-0.4-1.8l0.5-5.7 1.7-17.9 0.4-3.2c0.1-1.7 1.7-3 3.4-2.8l1.3 0.1q0.2 0 0.3 0l3.1 0.3q0.1 0 0.2 0l6 0.6 4.3 0.5q0.2 0 0.3 0l77.9 7.6 51.1 5 7.2 0.7c1.7 0.1 3 1.7 2.8 3.4l-0.3 3.2-2.4 23.6c-0.1 1.6-1.5 2.8-3.1 2.8zm-13.7-17.2c0.7 0 1.4 0.2 2 0.6l9.1 7.3 1.8-17.8-4-0.4-51.1-5-77.8-7.5h-0.1q-0.2 0-0.3-0.1l-4.4-0.4-5.8-0.6q-0.1 0-0.2 0l-1.7-0.2v0.1l-1.6 17.5 10.8-6.1c1.3-0.7 3-0.4 3.9 0.7l2.6 3 5.6 6.7 10.3-5.8 4.4-2.4c1.2-0.7 2.7-0.5 3.7 0.5l1.4 1.4 10.1 9.5 16-7.4c1-0.5 2.2-0.4 3.1 0.3l15 10.6 16.6-7.5c1-0.4 2.2-0.3 3.1 0.3l14.7 10.4 11.1-7.2c0.5-0.4 1.1-0.5 1.7-0.5z"/><path class="a" d="m252.4 220.9q-0.1 0-0.3 0l-77.9-7.6c-1.7-0.2-3-1.8-2.8-3.5 0.2-1.7 1.7-3 3.4-2.8l77.8 7.5c0.8 0.1 1.5 0.4 2 0.9v0.1c1.3 1.2 1.3 3.2 0 4.4-0.5 0.6-1.3 1-2.2 1z"/><path class="a" d="m310.6 226.6q-0.1 0-0.3 0l-7.1-0.7-51.1-5c-1.7-0.2-3-1.8-2.8-3.5 0.2-1.8 1.7-3 3.4-2.8l58.3 5.6c1.6 0.1 2.8 1.5 2.8 3.1v0.1c0 1.7-1.4 3.2-3.2 3.2z"/><path fill-rule="evenodd" class="a" d="m49.1 223.6c-1.1 0-2.1-0.6-2.7-1.6-0.4-0.7-10.6-18.4-22.4-61.5-11.9-43-12.2-63.5-12.2-64.4 0-1.4 0.9-2.7 2.3-3.1l79.6-21.8c1.7-0.5 3.5 0.5 3.9 2.2q0.1 0.5 0.1 1c-0.4 12.2-0.2 33.3 3.3 64.6 3.5 31.4 8 52.2 11.1 64.1q0.1 0.4 0.1 0.8v0.1c0 1.4-0.9 2.7-2.3 3l-59.9 16.5q-0.5 0.1-0.9 0.1zm-30.9-125.1c0.5 8.9 3.5 29.9 11.9 60.3 8.3 30.5 16.5 50 20.6 57.9l54.5-14.9c-3.1-12.5-7.2-32.8-10.5-62.1-3.2-28.3-3.7-48.4-3.4-61.3z"/><path fill-rule="evenodd" class="a" d="m14.9 99.2c-1.4 0-2.6-0.9-3-2.3l-5.3-19.4c-0.5-1.7 0.5-3.4 2.2-3.9 0.6-0.1 1.2-0.1 1.8 0.1l10.3 3.3 5.3-7.4c0.8-1.1 2.1-1.6 3.4-1.2l12.7 3.2 9.3-9.3c0.8-0.8 2-1.1 3.1-0.8l12.8 3.3 10.4-9.2c0.7-0.6 1.8-0.9 2.8-0.7l11.3 2.5v-0.2c0.4-1.7 2.1-2.8 3.8-2.4 1.3 0.3 2.3 1.4 2.5 2.7l0.3 2.7q0 0.4 0 0.8c0 0.1-0.6 4.5-0.9 13.3 0 1.4-1 2.6-2.3 3l-79.6 21.8q-0.4 0.1-0.9 0.1zm-0.7-17.7l3 10.7 74.3-20.4c0.1-3.4 0.3-6 0.4-7.9l-11-2.4-10.4 9.2c-0.8 0.7-1.9 0.9-2.9 0.7l-12.8-3.3-9.3 9.3c-0.8 0.8-1.9 1.1-3 0.8l-12.4-3.1-5.4 7.5c-0.8 1.1-2.3 1.5-3.6 1.1z"/><path fill-rule="evenodd" class="a" d="m54.4 243c-1.4 0-2.6-1-3-2.4l-5.3-19.3c-0.5-1.7 0.5-3.5 2.2-3.9l59.9-16.5c1.7-0.4 3.4 0.6 3.9 2.2q0 0 0 0.1 1.6 6.3 3.8 12.4 0.1 0.4 0.2 0.8l0.3 3.5c0.2 1.7-1 3.3-2.8 3.5q-0.5 0-1.1-0.1l-6.3-1.6-9.1 9.2c-0.9 0.9-2.2 1.2-3.4 0.7l-10.3-4.3-7.8 9.4c-1 1.2-2.7 1.5-4 0.7l-7.6-4.2-7.1 8.6c-0.6 0.7-1.5 1.2-2.5 1.2zm-1.4-20.4l2.9 10.5 4.9-6c1-1.2 2.6-1.5 4-0.8l7.6 4.3 7.7-9.1c0.8-1.1 2.3-1.4 3.6-0.9l10.4 4.3 8.8-9c0.8-0.8 2-1.1 3.1-0.8l3.3 0.8c-0.6-1.6-1.4-4.3-2.5-8z"/><path fill-rule="evenodd" class="a" d="m357.3 225.3q-0.5-0.1-0.9-0.2l-42.6-13.8c-1.3-0.4-2.2-1.6-2.2-3v-0.1q0-0.4 0.1-0.7c3.1-13 7.6-35.8 11-70.4 2.1-19.8 3-39.8 2.9-59.7 0-1.8 1.4-3.2 3.1-3.2q0.6 0 1.1 0.1l68.2 22c1.4 0.5 2.3 1.8 2.2 3.2-0.1 0.8-1.2 20.7-15 63.5-11.5 35.5-21.7 55.2-25 60.4-0.5 1.1-1.6 1.8-2.9 1.8zm-38.8-19l37.4 12.1c3.1-5.5 12.2-23 23.3-57.3 9.7-30.1 13.5-50.7 14.5-59.4l-61.7-19.9c0 16.4-1 35.3-3 56-3.1 32.6-7.3 54.9-10.5 68.5z"/><path fill-rule="evenodd" class="a" d="m397 102.5q-0.5 0-0.9-0.1l-68.3-22c-1.3-0.5-2.2-1.7-2.2-3.1 0-6.7-0.3-12.1-0.5-15.5-0.1-1.6 1-3 2.6-3.3l10.5-2.2c1.1-0.2 2.2 0.2 2.9 1l8.9 9.7 12.6-2.7c1.3-0.3 2.6 0.2 3.3 1.3l6.2 9.1 11.7-3.5c1.4-0.4 3 0.2 3.7 1.6l4 7.7 10.7-3.3c1.7-0.5 3.5 0.5 4 2.1 0.2 0.6 0.2 1.3 0 1.9l-6.2 19.1c-0.4 1.3-1.6 2.2-3 2.2zm-65.1-27.5l63.1 20.4 3.3-10.4-7.4 2.3c-1.5 0.5-3.1-0.2-3.8-1.5l-4-7.8-11.4 3.4c-1.3 0.4-2.7-0.1-3.5-1.2l-6.3-9.3-12.3 2.7c-1.1 0.2-2.2-0.1-3-1l-8.9-9.7-6.1 1.2c0.2 2.9 0.3 6.6 0.3 10.9z"/><path fill-rule="evenodd" class="a" d="m351.1 244.3c-0.9 0-1.8-0.4-2.4-1.2l-6.8-8.4-8.6 3.2c-1.2 0.5-2.5 0.2-3.4-0.8l-8.9-9.7-10.2 2.1c-1.7 0.4-3.4-0.7-3.7-2.4q-0.1-0.5-0.1-1l0.3-3.1q0.1-0.5 0.3-1 2.4-7.1 4.1-14.5c0.4-1.7 2.1-2.7 3.8-2.3q0.1 0 0.2 0.1l42.6 13.8c1.7 0.5 2.6 2.3 2.1 4l-6.2 19c-0.5 1.3-1.7 2.2-3.1 2.2zm-8.2-16.5c1 0 1.9 0.4 2.5 1.2l4.5 5.6 3.4-10.5-36.3-11.8c-1.2 4.7-2.2 8.1-2.9 10.1l7.3-1.5c1.1-0.2 2.3 0.1 3 0.9l8.7 9.5 8.7-3.3q0.5-0.2 1.1-0.2z"/><path class="a" d="m310.5 226.4q-0.1 0-0.3 0l-7.1-0.7c-0.8-0.1-1.5-0.4-2-1-1.3-1.3-1.3-3.3 0-4.5 0.6-0.7 1.6-1 2.5-0.9l7.2 0.7c1.6 0.2 2.9 1.5 2.9 3.1v0.1c0 1.8-1.4 3.2-3.2 3.2z"/><path class="a" d="m357.3 225.3q-0.5-0.1-0.9-0.2l-42.6-13.8c-1.7-0.6-2.6-2.4-2-4 0.5-1.6 2.3-2.5 3.9-2l42.6 13.7c1.3 0.4 2.2 1.7 2.2 3v0.1c0 1.7-1.4 3.1-3.2 3.1z"/><path fill-rule="evenodd" class="a" d="m112.9 219.9c-1.3 0-2.5-0.8-2.9-2q-2.4-6.4-4-13.1-0.1-0.2-0.1-0.3c-3.2-12.2-7.7-33.2-11.2-64.8-3.5-31.6-3.8-53.1-3.3-65.6q0.1-7 0.9-14c0.2-1.4 1.3-2.5 2.8-2.7l26.6-2.9 49.1-5.6c1.7-0.2 3.3 1.1 3.5 2.8q0 0.6-0.1 1.1c-3.1 13.1-7.5 35.7-10.7 69.2-2.1 20.5-3.1 39-3.1 55 0 5.2 0.1 9.8 0.2 13.5 0.3 6.6 0.7 12.3 1.3 17q0.1 0.4 0.1 0.9 0 0.2 0 0.3l-0.3 3.3c-0.2 1.4-1.3 2.6-2.8 2.8l-18.6 2.1q-0.1 0-0.2 0l-13.5 1.5-13.3 1.5q-0.2 0-0.4 0zm-0.7-16.5c1.2 4.7 2.2 8 2.9 9.9l10.8-1.2 13.6-1.5q0.1 0 0.2 0l15.9-1.8 0.1-0.3q0 0 0-0.1h-0.1c-0.6-4.9-1-10.9-1.3-17.7-0.1-3.8-0.2-8.4-0.2-13.7 0-16.2 1-34.9 3.1-55.7 2.9-30.3 6.8-51.9 9.9-65.6l-44.7 5-24.1 2.7c-0.2 2.2-0.4 5.8-0.6 10.9-0.4 12.3-0.2 33.4 3.3 64.7 3.5 31.4 8 52.2 11.1 64.1q0.1 0.2 0.1 0.3z"/><path fill-rule="evenodd" class="a" d="m95.4 63.7c-1.6 0-2.9-1.2-3.1-2.8l-0.3-2.6-2.4-21.7c-0.2-1.8 1-3.4 2.8-3.5q0.9-0.1 1.7 0.3l12.2 6.1 8.3-8.3c0.9-0.9 2.3-1.1 3.5-0.6l15.1 6.5 13.3-9.6c1-0.8 2.3-0.9 3.4-0.3l12 6.5 12.8-11.4c1.3-1.2 3.3-1 4.5 0.3 0.6 0.6 0.9 1.5 0.8 2.4l-1.2 11.5q-0.1 0.4-0.2 0.8c0 0-1.8 5-4.4 15.5-0.3 1.3-1.4 2.3-2.7 2.4l-49 5.5-26.7 3q-0.2 0-0.4 0zm1.1-22.1l1.7 15.5 23.6-2.7 46.8-5.2c2-8 3.5-12.4 3.9-13.7l0.4-3.1-8.5 7.5c-0.9 0.9-2.4 1-3.6 0.4l-12.2-6.6-13.1 9.6c-0.9 0.7-2.1 0.8-3.1 0.3l-14.8-6.4-8.4 8.4c-0.9 0.9-2.4 1.2-3.6 0.6z"/><path fill-rule="evenodd" class="a" d="m115.6 244.2c-1.6 0-2.9-1.2-3.1-2.8l-2.3-20.8-0.4-3.5c-0.2-1.7 1-3.3 2.8-3.5l13.3-1.5 13.6-1.5q0.1 0 0.2 0l18.5-2.1c1.7-0.2 3.3 1.1 3.5 2.8q0 0.3 0 0.6l-1.7 17.9c-0.2 1.8-1.7 3.1-3.5 2.9q-0.3 0-0.7-0.2l-7.6-2.5-6.3 10.1c-0.9 1.5-2.9 2-4.4 1.1q-0.1-0.1-0.3-0.2l-8.8-7-10.7 9.4c-0.5 0.6-1.3 0.8-2.1 0.8zm0.8-24.6v0.3l1.7 14.8 8-7.1c1.2-1 2.9-1.1 4.1-0.2l8.1 6.4 5.8-9.3c0.7-1.2 2.3-1.8 3.6-1.3l6.3 2.1 1-10.1-14.7 1.7q-0.1 0-0.2 0l-13.5 1.5z"/><path class="a" d="m252.3 220.7q-0.2 0-0.3 0l-77.9-7.6c-1.8-0.2-3-1.8-2.9-3.5 0.2-1.7 1.7-3 3.5-2.8l77.8 7.5c0.7 0.1 1.4 0.4 2 0.9v0.1c1.2 1.2 1.2 3.2 0 4.5-0.6 0.6-1.4 0.9-2.2 0.9z"/><path fill-rule="evenodd" class="a" d="m310.5 226.3q-0.1 0-0.3 0l-58.2-5.6q-0.3-0.1-0.6-0.2l-77.2-7.4h-0.1q-0.2 0-0.4 0l-4.3-0.5-5.8-0.6q-0.1 0-0.2 0l-3.1-0.3q-0.1 0-0.2 0l-1.5-0.1c-1.5-0.2-2.7-1.4-2.9-2.9q0-0.1 0-0.3c-0.7-4.9-1.1-10.9-1.4-17.7-0.1-3.8-0.2-8.4-0.2-13.7 0-16.2 1.1-34.9 3.1-55.7 3.3-33.8 7.7-56.7 10.9-69.9q1.9-8.3 4.6-16.3c0.5-1.3 1.8-2.2 3.2-2l57 5.5 61.8 6 3 0.3 29.9 2.9c1.4 0.1 2.6 1.2 2.8 2.6 0 0.2 0.6 3.7 1.1 11 0.2 3.5 0.5 9 0.5 15.9 0.1 20.2-0.9 40.4-3 60.4-3.4 34.8-7.9 57.8-11.1 71q0 0.2-0.1 0.3-1.7 7.8-4.4 15.3c-0.4 1.2-1.6 2-2.9 2zm-57.4-11.9l55.2 5.4c0.7-2.2 1.9-6.2 3.3-12q0-0.2 0.1-0.3c3.2-13.1 7.7-35.8 11-70.4 2.1-19.9 3.1-39.8 2.9-59.7q0-0.1 0-0.1c0-6.8-0.2-12.1-0.5-15.5-0.2-3.6-0.4-6.3-0.6-8l-27.5-2.6-3-0.3-61.7-6-54.4-5.3c-0.8 2.4-2.1 6.8-3.7 13.2-3.1 13.1-7.5 35.7-10.7 69.1-2 20.6-3 39.1-3 55.1 0 5.2 0 9.8 0.1 13.5 0.3 5.7 0.6 10.7 1.1 15l2.2 0.2q0.1 0 0.2 0l5.9 0.6 4.4 0.5q0.1-0.1 0.3 0l77.8 7.5q0.3 0 0.6 0.1z"/><path class="a" d="m252.3 220.7q-0.2 0-0.3 0l-77.9-7.6c-1.8-0.2-3-1.8-2.9-3.5 0.2-1.7 1.7-3 3.5-2.8l77.8 7.5c0.7 0.1 1.4 0.4 2 0.9v0.1c1.2 1.2 1.2 3.2 0 4.5-0.6 0.6-1.4 0.9-2.2 0.9z"/><path class="a" d="m310.5 226.4q-0.1 0-0.3 0l-7.1-0.7-51.1-5c-1.8-0.2-3-1.8-2.8-3.5 0.1-1.7 1.7-3 3.4-2.8l58.2 5.6c1.6 0.2 2.9 1.5 2.9 3.1v0.1c0 1.8-1.4 3.2-3.2 3.2z"/><path fill-rule="evenodd" class="a" d="m327.3 54.1q-0.2 0-0.3 0l-30-2.9-3-0.3-61.7-6-57-5.5c-1.7-0.2-3-1.8-2.8-3.5q0 0 0 0l0.7-7.4 1.9-19.4c0.2-1.8 1.8-3 3.5-2.9 0.6 0.1 1.2 0.3 1.7 0.7l11.9 9.5 10.9-7.1c1.1-0.7 2.5-0.7 3.6 0.1l14.9 10.5 16.7-7.5c1-0.4 2.2-0.3 3.1 0.3l14.9 10.6 16.3-7.5c1.2-0.6 2.6-0.3 3.5 0.6l11.3 10.8 15-8.3c1.4-0.7 3-0.5 4 0.7l8.1 9.6 13.9-7.8c1.5-0.8 3.4-0.3 4.3 1.2 0.3 0.6 0.4 1.2 0.4 1.9l-2.7 26.8c-0.1 1.6-1.5 2.8-3.1 2.8zm-148.2-20.7l53.8 5.2 61.8 6 3 0.3 26.7 2.6 1.8-17.6-10.8 6.1c-1.4 0.8-3 0.5-4-0.7l-8.2-9.6-14.7 8.1c-1.2 0.7-2.7 0.5-3.7-0.4l-11.5-11-16 7.4c-1 0.5-2.2 0.4-3.1-0.3l-14.9-10.6-16.7 7.5c-1.1 0.5-2.3 0.4-3.2-0.3l-14.6-10.3-11.1 7.2c-1.1 0.7-2.6 0.6-3.7-0.2l-9.1-7.3-1.4 13.7z"/><path fill-rule="evenodd" class="a" d="m307.9 253.2c-0.8 0-1.5-0.3-2-0.7l-11.9-9.6-11 7.2c-1.1 0.7-2.5 0.6-3.6-0.1l-14.9-10.6-16.6 7.5c-1 0.5-2.2 0.4-3.1-0.3l-14.9-10.6-16.3 7.6c-1.2 0.5-2.6 0.3-3.6-0.6l-11.3-10.8-2.3 1.3-12.6 7c-1.4 0.7-3 0.4-4-0.8l-8.1-9.6-8.8 5-5.1 2.8c-1.5 0.9-3.4 0.4-4.3-1.2-0.3-0.5-0.4-1.2-0.4-1.8l0.6-5.7 1.7-17.9 0.3-3.2c0.2-1.7 1.7-3 3.5-2.8l1.3 0.1q0.1 0 0.3 0l3.1 0.3q0.1 0 0.2 0l5.9 0.6 4.4 0.5q0.1 0 0.3 0l77.9 7.6 51.1 5 7.1 0.7c1.8 0.2 3 1.7 2.9 3.4l-0.3 3.3-2.4 23.5c-0.2 1.6-1.5 2.9-3.1 2.9zm-13.7-17.3c0.7 0 1.4 0.2 2 0.7l9.1 7.3 1.8-17.8-4-0.4-51.1-5-77.8-7.6h-0.1q-0.2 0-0.4 0l-4.3-0.5-5.9-0.6q0 0-0.1 0l-1.7-0.2v0.2l-1.7 17.4 10.8-6.1c1.4-0.7 3-0.4 4 0.7l2.5 3 5.7 6.7 10.3-5.8 4.3-2.4c1.3-0.7 2.8-0.5 3.8 0.5l1.4 1.4 10 9.5 16-7.4c1.1-0.4 2.3-0.3 3.2 0.3l14.9 10.6 16.7-7.5c1-0.4 2.2-0.3 3.1 0.3l14.6 10.4 11.1-7.2q0.9-0.5 1.8-0.5z"/><path class="a" d="m252.3 220.7q-0.2 0-0.3 0l-77.9-7.6c-1.8-0.2-3-1.8-2.9-3.5 0.2-1.7 1.7-3 3.5-2.8l77.8 7.5c0.7 0.1 1.4 0.4 2 0.9v0.1c1.2 1.2 1.2 3.2 0 4.5-0.6 0.6-1.4 0.9-2.2 0.9z"/><path class="a" d="m310.5 226.4q-0.1 0-0.3 0l-7.1-0.7-51.1-5c-1.8-0.2-3-1.8-2.8-3.5 0.1-1.7 1.7-3 3.4-2.8l58.2 5.6c1.6 0.2 2.9 1.5 2.9 3.1v0.1c0 1.8-1.4 3.2-3.2 3.2z"/><path class="a" d="m292.3 103.9c0.8-4.4 4.3-7.5 7.9-6.8 3.6 0.6 5.8 4.7 5 9.1-0.8 4.4-4.3 7.5-7.9 6.8-3.5-0.6-5.8-4.7-5-9.1z"/><path fill-rule="evenodd" class="a" d="m205.5 113.3c2.9 9.9 3.1 36.3-6.9 36.4-15.1 0.3-7.9-28.3-5.6-32.9-3.6 1.4-12.4 4.8-13.4 0.3-1.5-6.8 6.3-16.4 21.5-21.3 13.2-4.3 26.8-0.6 28 5.1 2.3 10.2-18.4 13.2-23.6 12.4zm94.5 18.1c-1.3 6.7-5.1 15-9 14.4-4.2-0.6-5.1-9.2-3.8-16.3 1.4-7.6 5.1-15.6 9.5-14.9 3.9 0.7 4.9 7.9 3.3 16.8zm-46.7 3.5c-2.7 5.2-7.3 8.4-12.2 7.9-6.1-0.8-10.4-7.2-10.6-15 3 1 6.6-0.6 6.2-8.1 0-1.9-0.5-3.7-1.5-5.4 2.7-3 6.2-4.7 9.8-4.2 3.6 0.4 6.5 2.7 8.4 6.1-0.4 2.2-0.7 4.5-0.8 6.6-0.3 4-0.1 8.1 0.7 12.1zm-9.7-14.9c-2.3-0.3-4.4 1.4-4.6 3.7-0.3 2.2 1.3 4.3 3.6 4.6 2.3 0.3 4.4-1.4 4.7-3.6 0.2-2.3-1.4-4.4-3.7-4.7zm24.4 19.3c-1.3 2.6-3.1 4.4-5.3 4.3-6.3-0.3-7.9-11.7-7.2-20.5 0.7-9.5 3.6-22.1 10.1-21.7 3 0.1 4.7 3.4 5.5 8-1.7 4.2-3 8.7-3.7 13.3-0.9 5.5-1 12.2 0.6 16.6zm18.1-14.2c-1.4 8.4-5 19.6-10.6 18.9-6.2-0.9-6.8-12.4-5.3-21.1 1.5-9.4 5.5-21.7 12-20.7 5.6 0.8 5.6 12.1 3.9 22.9zm-61.7-0.9c0-0.1-0.2 5.5-0.7 8.1-0.6 3.6-1.5 6.9-3.3 9-1.1 1.4-2.8 2.3-4.7 2.3-0.9 0-1.9-0.3-2.7-0.9-0.7-0.6-1.3-1.4-1.7-2.3-1.4-2.8-1.7-7.3-1.1-11.5 0.5-4.1 1.2-9.7 4.6-12.6 1.1-1 2.5-1.5 4-1.6 1.7-0.1 3.3 0.6 4.4 1.8 0.2-6.7 10.3-8.4 10.7 2.3 0.5 10.9-7.4 9.3-9.5 5.4z"/><path fill-rule="evenodd" class="a" d="m309.1 100.8c-0.8-0.1-1.3-0.8-1.2-1.5 0.1-0.8 0.8-1.4 1.5-1.3 0.8 0.1 1.3 0.8 1.3 1.6-0.1 0.7-0.8 1.3-1.6 1.2zm0.3-2.6c-0.6-0.1-1.2 0.4-1.3 1.1-0.1 0.6 0.4 1.2 1 1.3 0.7 0.1 1.3-0.4 1.4-1 0.1-0.7-0.4-1.3-1.1-1.4zm0.5 1.9q0 0.1-0.1 0.1-0.1 0-0.2 0 0 0 0 0c-0.1-0.4-0.1-0.5-0.3-0.5q0 0 0 0 0 0 0 0.1 0 0.2 0 0.3c0 0.1-0.1 0.1-0.1 0.1q-0.2 0.1-0.4 0-0.2 0-0.2-0.1 0.1-0.2 0.1-0.7 0.1-0.7 0.1-0.7 0-0.1 0-0.1 0-0.1 0.1-0.1 0.1 0 0.3 0 0.8 0.1 0.7 0.7c0 0.1-0.1 0.2-0.2 0.3 0.1 0.1 0.1 0 0.1 0.1q0.1 0.1 0.2 0.3 0 0.1 0 0.1 0 0.1-0.1 0.1zm-0.5-1.1q-0.2 0-0.2 0.1 0 0 0 0 0 0.1 0 0.2c0 0.1 0 0.1 0 0.1 0.1 0 0.3-0.2 0.3-0.3q0-0.1-0.1-0.1z"/><path class="a" d="m131.3 123.3c3.6 7.2 7.5 27.5-0.3 29-11.5 2.3-10-20.7-8.8-24.5-2.6 1.5-8.9 5.4-10.3 2-2.1-5 2.5-13.5 13.5-19.4 9.6-5.1 20.6-4.2 22.3 0 3.2 7.6-12.3 12.7-16.4 12.9z"/><path fill-rule="evenodd" class="a" d="m162.4 133.6c-0.6 1.8-0.5 2.3-0.5 2.4 0-0.1-0.3-0.8-2.3-0.7-1 0.1 1.3 5.6 0.4 5.3-3.6-1.2-6.4-4.9-7.4-9.7 2.4 0.4 5-1.4 3.7-7.1-0.3-1.4-1-2.8-2-3.9 1.4-2.6 4-4.4 7-4.7 2.8-0.1-3.4 1.6-1.5 4 0 1.5 0.1 3 0.3 4.4-1 0.6-1.7 1.7-1.6 3 0.1 1.5 1.2 2.7 2.6 3q0.5 2 1.3 4zm-2.3-9.3q0.1 0.5 0.1 0.9c0.9-1.2 2.8-2.2 1.4-2.1q-0.9 0.1-1.5 0.5 0 0.3 0 0.7zm-0.2 2.1c0-0.4 0.1-0.8 0.3-1.2q0.2 1.3 0.5 2.6c-0.5-0.4-0.8-0.9-0.8-1.4zm2.1 3.2c1.3 0-0.3-0.8-1.3-1.8q0.1 0.9 0.4 1.8 0.4 0.1 0.9 0z"/><path class="a" d="m153.9 123.5c2 8.4-4.4 8.2-6.5 5.5-0.1 0 0.6 4.3 0.6 6.4 0 2.8-0.2 5.5-1.3 7.4-0.7 1.2-1.9 2.1-3.3 2.4-0.7 0.1-1.5 0-2.2-0.3-0.7-0.4-1.2-0.9-1.6-1.5-1.5-2.1-2.4-5.4-2.5-8.7-0.2-3.3-0.4-7.7 1.8-10.4 0.7-0.9 1.7-1.5 2.8-1.8 1.3-0.3 2.6 0 3.7 0.8-0.8-5.2 6.7-8 8.6 0.2"/><path fill-rule="evenodd" class="a" d="m57.8 142.4c3.5 5.8 7.9 22.5 1.5 24.2-9.5 2.6-9.6-16.7-8.8-20-2.1 1.5-7.1 5.1-8.5 2.4-2.1-4.1 1.3-11.5 10.1-17 7.8-4.9 17-4.8 18.7-1.3 3.1 6.1-9.6 11.3-13 11.7zm33.9 6c-0.9 3.7-3.3 6.5-6.5 6.9-4 0.5-7.8-2.9-9.1-7.8 2 0.2 4-1.5 2.6-6.1-0.3-1.2-1-2.3-1.9-3.2 1.4-3.5 5.5-5.3 9-3.9 1.1 0.5 2.1 1.2 2.9 2.2 0.1 1.4 0.3 2.9 0.6 4.2 0.4 2.7 1.2 5.2 2.4 7.7zm-8.6-8c-1.5 0.2-2.6 1.6-2.4 3.1 0.2 1.5 1.6 2.6 3.1 2.4 1.5-0.2 2.5-1.6 2.4-3.1-0.2-1.5-1.6-2.5-3.1-2.4zm18.6 8.3c-0.4 1.9-1.3 3.3-2.7 3.6-4 0.9-6.9-6.1-7.9-11.8-1.1-6.2-1.3-14.6 2.9-15.5 2-0.3 3.6 1.4 4.8 4.2-0.4 3-0.5 6.1-0.2 9.1 0.3 3.7 1.4 7.9 3.1 10.4zm-30.1-2.5c-0.1 0 0.7 3.5 0.8 5.3 0.2 2.3 0.2 4.6-0.6 6.2-0.5 1.1-1.4 1.9-2.6 2.2-0.6 0.2-1.3 0.1-1.9-0.1q-0.8-0.4-1.4-1.2c-1.5-2-2.4-4.5-2.6-7.1-0.3-2.7-0.8-6.3 0.9-8.7 0.5-0.8 1.3-1.4 2.3-1.7 1-0.3 2.1-0.2 3 0.4-0.9-4.3 5.2-7 7.2-0.3 2.1 6.9-3.2 7.1-5.1 5z"/><path class="a" d="m364.4 138.9c1.3-3.2 4.4-4.9 6.9-3.8 2.6 1 3.6 4.4 2.3 7.5-1.2 3.2-4.3 4.9-6.9 3.9-2.5-1.1-3.5-4.5-2.3-7.6z"/><path class="a" d="m365.9 160.4c-2 4.9-6.1 10.4-8.8 9.4-3.1-1.2-2.4-7.7-0.4-12.7 2.2-5.4 6.2-10.8 9.4-9.6 2.7 1.1 2.4 6.6-0.2 12.9z"/><path fill-rule="evenodd" class="a" d="m333.7 142.1c-0.6 1.6-1.1 3.2-1.6 4.7-0.8 3-1.3 6-1.3 9.1-1.7 2.3-4.1 3.8-6.8 4.3-1.2 0.1 0-1.2-1.1-1.6-2.3-0.8 0.9-2.7-0.1-5.1 1.2 0.7 1-1.3 0.9-4.2q0.1 0 0.2 0.1c1.7 0.5 3.4-0.4 4-2 0.5-1.7-0.3-3.4-2-4-0.8-0.3-1.6-0.2-2.3 0.1q0-0.7 0.2-1.4c0.2-1.8 0.9-3 0.5-4.1 2.4-1.8 1.6-2.6 4.2-1.7 2.6 0.9 4.5 3.1 5.2 5.8zm-11.8 3.3c-0.5 1.6 0.3 3.3 1.8 3.9-0.2-1.7-0.3-3.8-0.1-5.8-0.8 0.4-1.4 1-1.7 1.9z"/><path class="a" d="m341.1 161.4c-1.4 1.8-3 2.8-4.7 2.4-4.5-1.2-4-9.9-2.2-16.3 2-6.9 6.1-15.8 10.8-14.5 2.2 0.5 3 3.2 2.9 6.7-2 2.9-3.6 6-4.8 9.3-1.5 4-2.6 8.9-2.1 12.4z"/><path class="a" d="m356.5 153.7c-2.2 5.9-6.6 13.7-10.7 12.3-4.4-1.6-3.1-10.2-0.7-16.4 2.6-6.7 7.4-15.2 12.1-13.5 4 1.4 2.3 9.8-0.7 17.6z"/><path fill-rule="evenodd" class="a" d="m377.3 139.2c-0.5-0.2-0.8-0.8-0.6-1.3 0.1-0.6 0.7-0.9 1.3-0.7 0.5 0.2 0.8 0.8 0.7 1.3-0.2 0.6-0.8 0.9-1.4 0.7zm0.6-1.9c-0.4-0.1-0.9 0.1-1.1 0.6-0.2 0.5 0.1 1 0.6 1.1 0.4 0.2 0.9-0.1 1.1-0.5 0.2-0.5-0.1-1-0.6-1.2zm0.1 1.5q0 0-0.1 0 0 0.1-0.1 0 0 0 0 0c0-0.3 0-0.4-0.1-0.4q0 0-0.1 0 0 0 0 0.1 0 0.1-0.1 0.2 0 0.1 0 0.1-0.2 0-0.3-0.1-0.1 0-0.1-0.1 0-0.1 0.2-0.5 0.1-0.5 0.1-0.5 0 0 0-0.1 0 0 0.1 0 0.1 0 0.3 0 0.5 0.2 0.4 0.6-0.1 0.2-0.2 0.2c0 0.1 0 0.1 0 0.1q0.1 0.1 0.1 0.3 0 0 0 0.1 0 0-0.1 0zm-0.2-0.9q-0.1 0-0.2 0 0 0 0 0 0 0.1 0 0.1c0 0.1 0 0.1 0 0.1 0.1 0.1 0.2-0.1 0.2-0.1 0.1-0.1 0-0.1 0-0.1z"/></svg>