<?xml version="1.0" encoding="utf-8"?>
<!-- Generator: Adobe Illustrator 26.2.1, SVG Export Plug-In . SVG Version: 6.00 Build 0)  -->
<svg version="1.1" id="Ebene_1" xmlns="http://www.w3.org/2000/svg" xmlns:xlink="http://www.w3.org/1999/xlink" x="0px" y="0px"
	 viewBox="0 0 500 500" style="enable-background:new 0 0 500 500;" xml:space="preserve">
<style type="text/css">
	.st0{clip-path:url(#SVGID_00000040559033789883013470000012347430681505062308_);}
	.st1{fill:#FFFFFF;}
</style>
<g id="Gruppe_532" transform="translate(0 0)">
	<g>
		<defs>
			<rect id="SVGID_1_" x="225" y="236.17" width="50" height="27.66"/>
		</defs>
		<clipPath id="SVGID_00000020357954329913657860000004231618561983083650_">
			<use xlink:href="#SVGID_1_"  style="overflow:visible;"/>
		</clipPath>
		
			<g id="Gruppe_530" transform="translate(0 0)" style="clip-path:url(#SVGID_00000020357954329913657860000004231618561983083650_);">
			<path id="Pfad_383" class="st1" d="M271.29,244.41l-15.04-8.23c-0.54-0.22-2.89,2.61-2.89,5.77c-0.02,1.65,0.64,3.23,1.84,4.37
				h-5.89c-0.13,0.02-0.26,0.04-0.39,0.08c-0.13-0.03-0.27-0.06-0.4-0.08h-9.72c-0.13,0.02-0.26,0.04-0.39,0.08
				c-0.13-0.03-0.27-0.06-0.4-0.08h-9.74c-1.71-0.09-3.17,1.22-3.26,2.93c0,0.07-0.01,0.13,0,0.2v1.4c-0.05,1.7,1.3,3.12,3,3.17
				c0.09,0,0.18,0,0.27,0H238c0.13-0.02,0.27-0.04,0.4-0.07c0.13,0.03,0.26,0.06,0.39,0.07h9.73c0.13-0.02,0.27-0.04,0.4-0.07
				c0.13,0.03,0.26,0.06,0.39,0.07h5.6c-1.03,1.08-1.6,2.52-1.6,4.02c0,3.11,2.4,6.05,2.94,5.78l15.04-8.12
				c2.14-1.05,3.56-3.17,3.7-5.55C274.89,247.7,273.47,245.51,271.29,244.41"/>
		</g>
	</g>
</g>
</svg>
