<svg version="1.2" xmlns="http://www.w3.org/2000/svg" viewBox="0 0 391 229" width="391" height="229"><style>.a{fill:#fff}</style><path class="a" d="m87.1 108.8c6-0.8 10.3 0.2 13.2 1.9 2.4 1.4 4.1 3.7 4.6 6.4 0.8 6.3-7.5 9-7.9 8.6-1.4-2.3-4.2-3.5-6.9-2.9-3.9 0.5-6.5 3.6-5.9 8 0.6 4.5 4 6.7 7.8 6.2 2.8-0.2 5.2-2.1 6-4.7 0.2-0.5 9-0.2 9.8 6.1 0.3 2.7-0.7 5.4-2.6 7.4-2.2 2.4-6.1 4.6-12.1 5.4-12.9 1.8-22.9-5.8-24.6-18.2-1.7-12.2 5.7-22.4 18.6-24.2z"/><path fill-rule="evenodd" class="a" d="m108.1 127.5c-1.7-12.3 6.2-22.5 18.8-24.3 12.7-1.7 23 5.9 24.7 18.2 1.8 12.3-6.1 22.5-18.7 24.2-12.7 1.8-23.1-5.8-24.8-18.1zm28.5-4c-0.7-4.7-3.6-7.3-7.8-6.7-4.2 0.6-6.4 3.7-5.7 8.5 0.7 4.7 3.6 7.2 7.8 6.6 4.2-0.6 6.3-3.8 5.7-8.4z"/><path class="a" d="m153.2 107.4c-0.7-4.8 1.6-7.4 5.7-8l1.9-0.3c4.4-0.6 7.1 1.4 7.7 6.1l2.2 15.6c0.5 3.8 2.2 5.4 5 5 2.8-0.3 3.8-2.2 3.3-6.2l-2.2-15.5c-0.7-4.8 1.6-7.4 5.8-8l1.8-0.3c4.4-0.6 7.1 1.4 7.7 6.1l2.2 15.5q2.7 18.9-16.8 21.7-19.5 2.7-22.2-16.3z"/><path fill-rule="evenodd" class="a" d="m200.4 128.3l-3.6-25.3c-0.8-5.5 1.5-8.9 6.6-9.6l10.8-1.5c12.3-1.7 19.6 2.6 21.1 12.9 1.4 10.2-4.2 16-16.1 17.7l-3.9 0.5 0.5 3.1c0.6 4.6-1.3 7.5-5.7 8.1l-2.3 0.3c-4.1 0.6-6.8-1.6-7.4-6.2zm20.1-21.4c-0.4-2.7-2.2-4-5.2-3.6l-2.9 0.4 1.2 8.4 3.2-0.5c2.8-0.4 4.1-2.1 3.7-4.7z"/><path fill-rule="evenodd" class="a" d="m238 109.2c-1.7-12.3 6.2-22.5 18.8-24.2 12.7-1.8 23 5.8 24.7 18.1 1.8 12.3-6.1 22.5-18.7 24.3-12.7 1.8-23.1-5.8-24.8-18.2zm28.5-4c-0.6-4.6-3.6-7.2-7.8-6.6-4.2 0.6-6.3 3.7-5.7 8.5 0.7 4.6 3.7 7.2 7.9 6.6 4.1-0.6 6.2-3.9 5.6-8.5z"/><path class="a" d="m286.8 116.2l-3.8-27.4c-0.7-4.6 1.3-7.1 5.1-7.6l1.3-0.2c3.4-0.5 4.5 0.3 6.8 2.3l14.1 12.9-1.5-10.7c-0.6-4.6 1.4-7.4 5.7-8l1.3-0.2c4.2-0.6 6.8 1.6 7.4 6.2l3.9 27.3c0.6 4.6-1.4 7.1-5.1 7.6l-1.3 0.2c-3.4 0.5-4.6-0.2-6.9-2.2l-14-12.7 1.4 10.4c0.7 4.7-1.3 7.4-5.7 8l-1.2 0.2c-4.2 0.6-6.8-1.5-7.5-6.2z"/><path fill-rule="evenodd" class="a" d="m367.7 174.9l-320.3 45.1c-9.8 1.3-18.8-4.4-20-12.9-1.2-8.5 5.8-16.6 15.7-18 0.8 0 1.5-0.6 1.5-1.5 0-0.8-0.7-1.5-1.5-1.5q-0.3 0-0.5 0c-9.8 1.4-18.7-4.4-19.9-12.9-0.6-4.2 0.8-8.4 3.6-11.6 3.1-3.5 7.4-5.7 12-6.3 0.8 0 1.5-0.7 1.5-1.5 0-0.8-0.7-1.5-1.5-1.5q-0.2 0-0.4 0c-9.8 1.4-18.8-4.4-20-12.9-0.5-4.2 0.8-8.4 3.7-11.6 3.1-3.5 7.3-5.7 11.9-6.3 0.9 0 1.6-0.7 1.6-1.5 0-0.9-0.7-1.5-1.6-1.5q-0.2 0-0.4 0c-9.8 1.4-18.7-4.4-19.9-12.9-0.6-4.2 0.8-8.5 3.6-11.6 3.1-3.5 7.4-5.7 12-6.3 0.9 0 1.5-0.7 1.5-1.5 0-0.9-0.6-1.6-1.5-1.6q-0.2 0-0.4 0.1c-9.8 1.4-18.8-4.4-20-12.9-1.2-8.5 5.8-16.5 15.7-17.9l320.3-45.1c9.8-1.3 18.8 4.5 20 13 1.2 8.5-5.9 16.5-15.7 17.9-0.8 0-1.5 0.6-1.5 1.5 0 0.8 0.7 1.5 1.5 1.5q0.3 0 0.5 0c9.8-1.4 18.7 4.4 19.9 12.9 0.6 4.2-0.8 8.4-3.6 11.6-3.1 3.5-7.4 5.7-12 6.3-0.9 0-1.5 0.7-1.5 1.5 0 0.9 0.6 1.5 1.5 1.5q0.2 0 0.4 0c9.8-1.4 18.8 4.4 20 12.9 0.5 4.2-0.9 8.5-3.7 11.6-3.1 3.5-7.4 5.7-12 6.3-0.8 0-1.5 0.7-1.5 1.5 0 0.9 0.7 1.6 1.5 1.6q0.2 0 0.4-0.1c9.8-1.4 18.8 4.4 20 12.9 0.5 4.2-0.8 8.5-3.7 11.6-3.1 3.5-7.3 5.8-11.9 6.3-0.9 0-1.6 0.7-1.6 1.5 0 0.9 0.7 1.6 1.6 1.6q0.2 0 0.4-0.1c9.8-1.4 18.8 4.4 19.9 12.9 1.3 8.5-5.7 16.6-15.6 17.9zm-343.3-118.4c-8.1 1.2-13.9 7.8-12.9 14.9 0.9 7 8.4 11.8 16.5 10.7 2.7-0.4 5 1.1 5.4 3.4 0.3 2.3-1.6 4.5-4.2 4.8-3.9 0.5-7.4 2.4-9.9 5.2-2.4 2.6-3.5 6.2-3.1 9.7 1 7 8.4 11.8 16.6 10.7 2.6-0.4 5 1.1 5.3 3.4 0.3 2.4-1.5 4.5-4.2 4.8-3.8 0.5-7.3 2.4-9.9 5.2-2.4 2.6-3.5 6.2-3 9.7 0.9 7 8.4 11.8 16.5 10.7 2.7-0.4 5 1.1 5.4 3.4 0.3 2.4-1.5 4.5-4.2 4.9-3.8 0.4-7.4 2.3-9.9 5.1-2.4 2.7-3.5 6.2-3.1 9.7 1 7 8.4 11.8 16.6 10.7 2.7-0.4 5 1.1 5.3 3.5 0.4 2.3-1.5 4.4-4.2 4.8-8.1 1.1-13.9 7.8-12.9 14.8 1 7.1 8.4 11.9 16.5 10.7l320.4-45c8.1-1.2 13.9-7.8 13-14.9-1-7-8.5-11.8-16.6-10.7-2.7 0.4-5-1.1-5.4-3.4-0.3-2.3 1.6-4.5 4.2-4.8 3.9-0.5 7.4-2.3 10-5.2 2.3-2.6 3.5-6.2 3-9.7-1-7-8.4-11.8-16.5-10.7-2.7 0.4-5.1-1.1-5.4-3.4-0.3-2.4 1.5-4.5 4.2-4.8 3.8-0.5 7.3-2.4 9.9-5.2 2.4-2.6 3.5-6.2 3.1-9.7-1-7-8.5-11.8-16.6-10.7-2.7 0.4-5-1.1-5.4-3.4-0.3-2.4 1.6-4.5 4.2-4.9 3.9-0.4 7.4-2.3 10-5.1 2.3-2.7 3.5-6.2 3-9.7-1-7-8.4-11.8-16.5-10.7-2.7 0.4-5.1-1.1-5.4-3.5-0.3-2.3 1.5-4.4 4.2-4.8 8.1-1.1 13.9-7.8 13-14.8-1-7.1-8.5-11.9-16.6-10.7z"/><path fill-rule="evenodd" class="a" d="m44.5 222.6c-9.8 0-18.2-6.4-19.5-15.2-0.6-4.9 1-9.9 4.3-13.5 2-2.3 4.5-4.1 7.3-5.4-8.4-1.1-15.2-7-16.3-14.9-0.6-4.9 0.9-9.8 4.2-13.5 2-2.3 4.5-4.2 7.3-5.4-8.4-1.2-15.2-7-16.3-14.9-0.6-4.9 0.9-9.8 4.2-13.5 2-2.4 4.6-4.2 7.4-5.4-8.4-1.2-15.2-7.1-16.3-14.9-0.6-4.9 0.9-9.9 4.2-13.6 2-2.3 4.5-4.1 7.3-5.3-8.4-1.2-15.2-7.1-16.3-15-0.6-4.9 0.9-9.8 4.3-13.5 3.5-3.9 8.2-6.4 13.4-7.1l320.4-45c5.1-0.8 10.4 0.3 14.8 3.1 4.2 2.6 7.1 6.9 7.8 11.8 1.1 7.9-3.8 15.5-11.6 18.9 3.1 0.4 6 1.5 8.5 3.1 4.3 2.6 7.1 7 7.9 11.9 0.6 4.9-1 9.8-4.3 13.5-2 2.3-4.5 4.1-7.3 5.3 8.4 1.2 15.2 7.1 16.3 15 0.6 4.9-0.9 9.8-4.2 13.5-2 2.3-4.5 4.1-7.3 5.4 8.4 1.1 15.2 7 16.3 14.9 0.6 4.9-0.9 9.8-4.2 13.5-2 2.3-4.5 4.2-7.4 5.4 3.1 0.4 5.9 1.5 8.5 3.1 7.8 4.7 10.3 14.8 5.6 22.6q-0.9 1.5-2 2.7c-3.5 3.9-8.3 6.4-13.4 7.1l-320.4 45q-1.6 0.3-3.2 0.3zm-1.4-41.5c3.4-0.2 6.3 2.2 6.9 5.6 0.2 1.8-0.3 3.6-1.6 5-1.2 1.3-2.8 2.2-4.6 2.5-3.3 0.4-6.3 1.9-8.5 4.4-1.9 2.1-2.8 4.9-2.5 7.7 0.8 5.8 7.1 9.6 13.9 8.7l320.3-45c6.9-1 11.8-6.4 11-12.2-0.5-2.8-2.1-5.3-4.6-6.7-2.7-1.8-6-2.5-9.3-2-1.8 0.3-3.6-0.1-5.2-1-2.9-1.9-3.8-5.7-1.9-8.6q0.2-0.5 0.6-0.9c1.2-1.3 2.9-2.2 4.7-2.5 3.2-0.3 6.2-1.9 8.4-4.3 2-2.1 2.9-5 2.5-7.8-0.8-5.7-7-9.6-13.8-8.7-1.8 0.3-3.7-0.1-5.2-1.1-2.9-1.8-3.8-5.6-2-8.5q0.3-0.5 0.6-0.9c1.3-1.4 2.9-2.2 4.7-2.5 3.3-0.4 6.3-1.9 8.5-4.3 3.5-3.8 3.4-9.7-0.3-13.3q-0.8-0.7-1.8-1.3c-2.7-1.7-6.1-2.4-9.3-1.9-1.8 0.3-3.6-0.1-5.2-1.1-1.5-1-2.6-2.6-2.8-4.4-0.6-3.6 2.2-6.9 6.2-7.5 3.2-0.4 6.2-1.9 8.4-4.4 1.9-2.1 2.9-4.9 2.5-7.8-0.8-5.7-7-9.6-13.9-8.6-4 0.5-7.5-1.9-8-5.5-0.3-1.8 0.3-3.7 1.5-5 1.2-1.4 2.9-2.3 4.7-2.5 6.9-1 11.8-6.4 10.9-12.2-0.8-5.7-7-9.6-13.8-8.6l-320.4 45c-6.8 0.9-11.7 6.4-10.9 12.1 0.8 5.8 7 9.7 13.9 8.7 4-0.5 7.5 1.9 8 5.5 0.3 1.8-0.3 3.7-1.5 5-1.2 1.4-2.9 2.3-4.7 2.5-3.3 0.4-6.3 1.9-8.4 4.4-3.6 3.7-3.5 9.6 0.3 13.2q0.8 0.8 1.7 1.3c2.8 1.8 6.1 2.4 9.3 1.9 1.8-0.2 3.7 0.1 5.2 1.1 1.6 1 2.6 2.6 2.9 4.4 0.5 3.7-2.2 7-6.2 7.5-3.3 0.4-6.3 2-8.5 4.4-1.9 2.1-2.8 5-2.5 7.8 0.9 5.7 7.1 9.6 13.9 8.7 4-0.6 7.5 1.8 8 5.4 0.3 1.9-0.3 3.7-1.5 5.1-1.2 1.3-2.9 2.2-4.7 2.4-3.2 0.4-6.2 2-8.4 4.4-2 2.1-2.9 5-2.5 7.8 0.8 5.7 7 9.6 13.8 8.7q0.6-0.1 1.2-0.1z"/></svg>