<svg version="1.2" xmlns="http://www.w3.org/2000/svg" viewBox="0 0 291 289" width="267" height="265"><style>.a{fill:#fff}</style><path class="a" d="m105.1 173.1l-4.3-30.1q-1.8 1-3.9 1.3c-3.1 0.5-6.3-0.3-8.8-2.2-2.5-2.1-4.1-5-4.5-8.2-1.2-8.7 4-12.9 4.9-12.6 2.3 1 4.8 1.3 7.3 1 4.6-0.6 8.2-4.3 8.8-8.9l6.3-0.9c7.4-1.1 11.9 2.3 13 10.3l6.6 46.7c1.1 7.8-2.3 12.5-9.7 13.5l-3.2 0.5c-7 1-11.4-2.6-12.5-10.4z"/><path class="a" d="m204 156.1c0.7 3-0.1 6-2 8.3-2.4 3.4-9.4 8.3-20.5 9.9-18.2 2.5-32.5-5.7-36.6-22.9l-0.4 0.1c-5.2 0.7-8.4-2.5-8.9-6.4l-0.3-2.1c-0.5-3.7 1.6-7.7 6.8-8.5h0.4c-0.6-17.4 10.9-29.2 29-31.7 11.1-1.6 19.2 1.3 22.4 3.9 2.5 1.6 4 4.4 4.2 7.4 1.1 8-8.8 13.8-9.7 13.2-4.3-3.3-7.5-4.6-12.8-3.8-4.6 0.6-7.8 2.6-8.1 7.5l9.8-1.4c5.3-0.7 8.3 2.6 8.9 6.3l0.2 2c0.6 3.9-1.4 7.9-6.7 8.6l-9.9 1.4c1.6 4.8 5.4 6 10 5.4 5.3-0.7 8-2.9 11.2-7.2 0.7-0.8 11.9 2 13 10z"/><path fill-rule="evenodd" class="a" d="m143.8 285.1c-77.2 0-140-62.8-140-140 0-77.2 62.8-140 140-140 77.2 0 140 62.8 140 140 0 77.2-62.8 140-140 140zm0-273.9c-73.8 0-133.9 60.1-133.9 133.9 0 73.9 60.1 133.9 133.9 133.9 73.8 0 133.9-60 133.9-133.9 0-73.8-60.1-133.9-133.9-133.9z"/><path fill-rule="evenodd" class="a" d="m143.8 251.3c-59.8 0-108.3-48.5-108.3-108.3 0-59.8 48.5-108.3 108.3-108.3 59.9 0 108.4 48.5 108.4 108.3q0 0 0 0c-0.1 59.8-48.6 108.3-108.4 108.3zm0-210.6c-56.5 0-102.3 45.8-102.3 102.3 0 56.5 45.8 102.3 102.3 102.3 56.5 0 102.3-45.8 102.3-102.3-0.1-56.5-45.8-102.2-102.3-102.3z"/></svg>